<svg width="24" height="24" viewBox="0 0 24 24" fill="none" xmlns="http://www.w3.org/2000/svg">
    <path d="M16.5 3C15.6267 3 14.7655 3.20332 13.9844 3.59385C13.2034 3.98438 12.524 4.5514 12 5.25C11.2916 4.30553 10.3041 3.60787 9.17719 3.25586C8.0503 2.90385 6.84122 2.91532 5.72122 3.28866C4.60121 3.66199 3.62707 4.37826 2.93676 5.336C2.24646 6.29375 1.875 7.44441 1.875 8.625C1.875 15.3656 11.2406 20.6812 11.6344 20.9062C11.7459 20.969 11.872 21.0013 12 21C12.1281 21.0022 12.2544 20.9698 12.3656 20.9062C14.0903 19.898 15.708 18.7169 17.1937 17.3812C20.4656 14.4375 22.125 11.4937 22.125 8.625C22.125 7.13316 21.5324 5.70242 20.4775 4.64752C19.4226 3.59263 17.9918 3 16.5 3Z" fill="#CDD2DE"/>
</svg>
