<svg width="24" height="24" viewBox="0 0 24 24" fill="none" xmlns="http://www.w3.org/2000/svg">
    <path d="M20.5125 9.7219L13.0125 2.90627C12.736 2.6533 12.3748 2.513 12 2.513C11.6252 2.513 11.264 2.6533 10.9875 2.90627L3.4875 9.7219C3.33394 9.86238 3.2113 10.0333 3.12737 10.2237C3.04344 10.4142 3.00007 10.62 3 10.8281V19.4625C2.9939 19.8407 3.12741 20.2078 3.375 20.4938C3.51552 20.6536 3.68862 20.7814 3.88267 20.8687C4.07672 20.9561 4.28721 21.0008 4.5 21H9C9.19891 21 9.38968 20.921 9.53033 20.7804C9.67098 20.6397 9.75 20.4489 9.75 20.25V15.75C9.75 15.5511 9.82902 15.3603 9.96967 15.2197C10.1103 15.079 10.3011 15 10.5 15H13.5C13.6989 15 13.8897 15.079 14.0303 15.2197C14.171 15.3603 14.25 15.5511 14.25 15.75V20.25C14.25 20.4489 14.329 20.6397 14.4697 20.7804C14.6103 20.921 14.8011 21 15 21H19.5C19.7488 21.0022 19.994 20.9409 20.2125 20.8219C20.4502 20.6924 20.6488 20.5014 20.7873 20.2688C20.9259 20.0363 20.9993 19.7707 21 19.5V10.8281C20.9999 10.62 20.9566 10.4142 20.8726 10.2237C20.7887 10.0333 20.6661 9.86238 20.5125 9.7219Z" fill="url(#paint0_linear_118_22)"/>
    <defs>
        <linearGradient id="paint0_linear_118_22" x1="11.9999" y1="2.513" x2="11.9999" y2="21.0001" gradientUnits="userSpaceOnUse">
            <stop stop-color="#F39F3D"/>
            <stop offset="0.0001" stop-color="#E1D24A"/>
            <stop offset="1" stop-color="#C69223"/>
        </linearGradient>
    </defs>
</svg>
