<svg width="16" height="19" viewBox="0 0 16 19" fill="none" xmlns="http://www.w3.org/2000/svg">
    <path d="M12.5714 5.71429V4.57143C12.5714 2.05071 10.5207 0 8 0C5.47929 0 3.42857 2.05071 3.42857 4.57143V5.71429H0V15.4286C0 17.0065 1.27918 18.2857 2.85714 18.2857H13.1429C14.7208 18.2857 16 17.0065 16 15.4286V5.71429H12.5714ZM5.71429 4.57143C5.71429 3.31107 6.73964 2.28571 8 2.28571C9.26036 2.28571 10.2857 3.31107 10.2857 4.57143V5.71429H5.71429V4.57143ZM11.4286 8.85714C10.9552 8.85714 10.5714 8.47339 10.5714 8C10.5714 7.52661 10.9552 7.14286 11.4286 7.14286C11.902 7.14286 12.2857 7.52661 12.2857 8C12.2857 8.47339 11.902 8.85714 11.4286 8.85714ZM4.57143 8.85714C4.09804 8.85714 3.71429 8.47339 3.71429 8C3.71429 7.52661 4.09804 7.14286 4.57143 7.14286C5.04482 7.14286 5.42857 7.52661 5.42857 8C5.42857 8.47339 5.04482 8.85714 4.57143 8.85714Z" fill="url(#paint0_linear_112_5)"/>
    <defs>
        <linearGradient id="paint0_linear_112_5" x1="8" y1="0" x2="8" y2="18.2857" gradientUnits="userSpaceOnUse">
            <stop stop-color="#E1D24A"/>
            <stop offset="1" stop-color="#C69223"/>
        </linearGradient>
    </defs>
</svg>
